<svg width="35" height="36" viewBox="0 0 35 36" fill="none" xmlns="http://www.w3.org/2000/svg">
<path d="M17.5 35.8066C27.165 35.8066 35 27.9716 35 18.3066C35 8.64166 27.165 0.806641 17.5 0.806641C7.83502 0.806641 0 8.64166 0 18.3066C0 27.9716 7.83502 35.8066 17.5 35.8066Z" fill="#E5EBFC"/>
<g clip-path="url(#clip0_0_13395)">
<path d="M19.7509 18.3066C19.7509 19.5492 18.7436 20.5566 17.501 20.5566C16.2583 20.5566 15.251 19.5492 15.251 18.3066C15.251 17.064 16.2583 16.0566 17.501 16.0566C18.7436 16.0566 19.7509 17.064 19.7509 18.3066Z" stroke="#004BFE" stroke-linecap="round" stroke-linejoin="round"/>
<path d="M22.8828 20.4885C22.6847 20.9373 22.7798 21.4614 23.1228 21.8121L23.1665 21.8557C23.4396 22.1286 23.5931 22.4988 23.5931 22.8848C23.5931 23.2709 23.4396 23.6411 23.1665 23.9139C22.8936 24.187 22.5234 24.3405 22.1374 24.3405C21.7513 24.3405 21.3811 24.187 21.1083 23.9139L21.0646 23.8703C20.714 23.5272 20.1898 23.4322 19.741 23.6303C19.3014 23.8187 19.0156 24.2502 19.0137 24.7285V24.8521C19.0137 25.6554 18.3625 26.3066 17.5592 26.3066C16.7559 26.3066 16.1046 25.6554 16.1046 24.8521V24.7866C16.0931 24.294 15.7816 23.8585 15.3192 23.6885C14.8704 23.4904 14.3462 23.5854 13.9955 23.9285L13.9519 23.9721C13.6791 24.2452 13.3089 24.3987 12.9228 24.3987C12.5368 24.3987 12.1666 24.2452 11.8937 23.9721C11.6206 23.6993 11.4671 23.3291 11.4671 22.943C11.4671 22.557 11.6206 22.1867 11.8937 21.9139L11.9374 21.8703C12.2804 21.5196 12.3754 20.9954 12.1774 20.5466C11.989 20.107 11.5575 19.8213 11.0792 19.8194L10.9555 19.8194C10.1522 19.8194 9.501 19.1681 9.501 18.3648C9.501 17.5615 10.1522 16.9103 10.9555 16.9103H11.021C11.5136 16.8988 11.9491 16.5873 12.1192 16.1248C12.3173 15.676 12.2222 15.1519 11.8792 14.8012L11.8355 14.7575C11.5624 14.4847 11.4089 14.1145 11.4089 13.7285C11.4089 13.3424 11.5624 12.9722 11.8355 12.6994C12.1084 12.4262 12.4786 12.2728 12.8646 12.2728C13.2507 12.2728 13.6209 12.4262 13.8937 12.6994L13.9374 12.743C14.288 13.086 14.8122 13.1811 15.261 12.983H15.3192C15.7588 12.7946 16.0445 12.3631 16.0465 11.8848V11.7612C16.0465 10.9579 16.6977 10.3066 17.501 10.3066C18.3043 10.3066 18.9555 10.9579 18.9555 11.7612V11.8266C18.9575 12.3049 19.2432 12.7364 19.6828 12.9248C20.1316 13.1229 20.6558 13.0279 21.0065 12.6848L21.0501 12.6412C21.3229 12.3681 21.6931 12.2146 22.0792 12.2146C22.4652 12.2146 22.8354 12.3681 23.1083 12.6412C23.3814 12.914 23.5349 13.2842 23.5349 13.6703C23.5349 14.0563 23.3814 14.4265 23.1083 14.6994L23.0646 14.743C22.7216 15.0937 22.6266 15.6178 22.8246 16.0666L22.8246 16.1248C23.013 16.5644 23.4445 16.8502 23.9228 16.8521H24.0465C24.8498 16.8521 25.501 17.5033 25.501 18.3066C25.501 19.11 24.8498 19.7612 24.0465 19.7612H23.981C23.5027 19.7631 23.0712 20.0488 22.8828 20.4885L22.8828 20.4885Z" stroke="#004BFE" stroke-linecap="round" stroke-linejoin="round"/>
</g>
<defs>
<clipPath id="clip0_0_13395">
<rect width="16" height="16" fill="white" transform="translate(9.501 10.3066)"/>
</clipPath>
</defs>
</svg>
