<svg width="35" height="36" viewBox="0 0 35 36" fill="none" xmlns="http://www.w3.org/2000/svg">
<path d="M17.5 35.8066C27.165 35.8066 35 27.9716 35 18.3066C35 8.64166 27.165 0.806641 17.5 0.806641C7.83502 0.806641 0 8.64166 0 18.3066C0 27.9716 7.83502 35.8066 17.5 35.8066Z" fill="#E5EBFC"/>
<g clip-path="url(#clip0_0_13406)">
<mask id="path-2-inside-1_0_13406" fill="white">
<path fill-rule="evenodd" clip-rule="evenodd" d="M21.9995 11.8066H13.0005C11.3436 11.8066 10.0005 13.1498 10.0005 14.8066V17.5542C9.7263 17.3366 9.37902 17.2065 9.00126 17.2065H9.00049V14.8066C9.00049 12.5975 10.7914 10.8066 13.0005 10.8066H21.9995C24.2086 10.8066 25.9995 12.5975 25.9995 14.8066V17.2065C25.6214 17.2066 25.2738 17.337 24.9995 17.5551V14.8066C24.9995 13.1498 23.6564 11.8066 21.9995 11.8066ZM24.9995 20.058V22.8067C24.9995 24.4635 23.6564 25.8067 21.9995 25.8067H13.0005C11.3436 25.8067 10.0005 24.4635 10.0005 22.8067V20.0588C9.7263 20.2765 9.37902 20.4065 9.00126 20.4065H9.00049V22.8067C9.00049 25.0158 10.7914 26.8067 13.0005 26.8067H21.9995C24.2086 26.8067 25.9995 25.0158 25.9995 22.8067V20.4065C25.6214 20.4065 25.2738 20.2761 24.9995 20.058ZM25.9995 18.2065V19.4065C25.6623 19.4064 25.3945 19.1347 25.3945 18.8065C25.3945 18.4784 25.6623 18.2067 25.9995 18.2065ZM9.00049 18.2065V19.4065H9.00126C9.33863 19.4065 9.60651 19.1348 9.60651 18.8065C9.60651 18.4783 9.33863 18.2065 9.00126 18.2065L9.00049 18.2065Z"/>
</mask>
<path d="M10.0005 17.5542L9.37878 18.3375L11.0005 19.6247V17.5542H10.0005ZM9.00049 17.2065H8.00049V18.2065H9.00049V17.2065ZM25.9995 17.2065L25.9997 18.2065L26.9995 18.2064V17.2065H25.9995ZM24.9995 17.5551H23.9995V19.6278L25.6219 18.3378L24.9995 17.5551ZM24.9995 20.058L25.6219 19.2753L23.9995 17.9853V20.058H24.9995ZM10.0005 20.0588H11.0005V17.9884L9.37878 19.2756L10.0005 20.0588ZM9.00049 20.4065V19.4065H8.00049V20.4065H9.00049ZM25.9995 20.4065H26.9995V19.4067L25.9997 19.4065L25.9995 20.4065ZM25.9995 19.4065L25.9991 20.4065L26.9995 20.407V19.4065H25.9995ZM25.9995 18.2065H26.9995V17.2061L25.9991 17.2065L25.9995 18.2065ZM9.00049 19.4065H8.00049V20.4065H9.00049V19.4065ZM9.00049 18.2065L8.99987 17.2065L8.00049 17.2072V18.2065H9.00049ZM9.00126 18.2065V17.2065H9.00063L9.00126 18.2065ZM13.0005 12.8066H21.9995V10.8066H13.0005V12.8066ZM11.0005 14.8066C11.0005 13.7021 11.8959 12.8066 13.0005 12.8066V10.8066C10.7914 10.8066 9.00049 12.5975 9.00049 14.8066H11.0005ZM11.0005 17.5542V14.8066H9.00049V17.5542H11.0005ZM9.00126 18.2065C9.14556 18.2065 9.2753 18.2553 9.37878 18.3375L10.6222 16.771C10.1773 16.4179 9.61247 16.2065 9.00126 16.2065V18.2065ZM9.00049 18.2065H9.00126V16.2065H9.00049V18.2065ZM8.00049 14.8066V17.2065H10.0005V14.8066H8.00049ZM13.0005 9.80664C10.2391 9.80664 8.00049 12.0452 8.00049 14.8066H10.0005C10.0005 13.1498 11.3436 11.8066 13.0005 11.8066V9.80664ZM21.9995 9.80664H13.0005V11.8066H21.9995V9.80664ZM26.9995 14.8066C26.9995 12.0452 24.7609 9.80664 21.9995 9.80664V11.8066C23.6564 11.8066 24.9995 13.1498 24.9995 14.8066H26.9995ZM26.9995 17.2065V14.8066H24.9995V17.2065H26.9995ZM25.6219 18.3378C25.7254 18.2555 25.8552 18.2066 25.9997 18.2065L25.9993 16.2065C25.3875 16.2066 24.8222 16.4185 24.3772 16.7723L25.6219 18.3378ZM23.9995 14.8066V17.5551H25.9995V14.8066H23.9995ZM21.9995 12.8066C23.1041 12.8066 23.9995 13.7021 23.9995 14.8066H25.9995C25.9995 12.5975 24.2086 10.8066 21.9995 10.8066V12.8066ZM23.9995 20.058V22.8067H25.9995V20.058H23.9995ZM23.9995 22.8067C23.9995 23.9112 23.1041 24.8067 21.9995 24.8067V26.8067C24.2087 26.8067 25.9995 25.0158 25.9995 22.8067H23.9995ZM21.9995 24.8067H13.0005V26.8067H21.9995V24.8067ZM13.0005 24.8067C11.8959 24.8067 11.0005 23.9112 11.0005 22.8067H9.00049C9.00049 25.0158 10.7914 26.8067 13.0005 26.8067V24.8067ZM11.0005 22.8067V20.0588H9.00049V22.8067H11.0005ZM9.37878 19.2756C9.2753 19.3577 9.14556 19.4065 9.00126 19.4065V21.4065C9.61247 21.4065 10.1773 21.1952 10.6222 20.8421L9.37878 19.2756ZM9.00126 19.4065H9.00049V21.4065H9.00126V19.4065ZM8.00049 20.4065V22.8067H10.0005V20.4065H8.00049ZM8.00049 22.8067C8.00049 25.5681 10.2391 27.8067 13.0005 27.8067V25.8067C11.3436 25.8067 10.0005 24.4635 10.0005 22.8067H8.00049ZM13.0005 27.8067H21.9995V25.8067H13.0005V27.8067ZM21.9995 27.8067C24.7609 27.8067 26.9995 25.5681 26.9995 22.8067H24.9995C24.9995 24.4635 23.6564 25.8067 21.9995 25.8067V27.8067ZM26.9995 22.8067V20.4065H24.9995V22.8067H26.9995ZM25.9997 19.4065C25.8552 19.4065 25.7254 19.3576 25.6219 19.2753L24.3772 20.8407C24.8222 21.1946 25.3875 21.4064 25.9993 21.4065L25.9997 19.4065ZM26.9995 19.4065V18.2065H24.9995V19.4065H26.9995ZM24.3945 18.8065C24.3945 19.6884 25.1113 20.4061 25.9991 20.4065L26 18.4065C26.2133 18.4066 26.3945 18.5811 26.3945 18.8065H24.3945ZM25.9991 17.2065C25.1113 17.2069 24.3945 17.9247 24.3945 18.8065H26.3945C26.3945 19.032 26.2133 19.2064 26 19.2065L25.9991 17.2065ZM10.0005 19.4065V18.2065H8.00049V19.4065H10.0005ZM9.00126 18.4065H9.00049V20.4065H9.00126V18.4065ZM8.60651 18.8065C8.60651 18.581 8.78788 18.4065 9.00126 18.4065V20.4065C9.88937 20.4065 10.6065 19.6887 10.6065 18.8065H8.60651ZM9.00126 19.2065C8.78788 19.2065 8.60651 19.0321 8.60651 18.8065H10.6065C10.6065 17.9244 9.88937 17.2065 9.00126 17.2065V19.2065ZM9.00112 19.2065H9.00188L9.00063 17.2065L8.99987 17.2065L9.00112 19.2065Z" fill="#004CFF" mask="url(#path-2-inside-1_0_13406)"/>
<path d="M11 18.8066H24" stroke="#004CFF" stroke-dasharray="1"/>
</g>
<defs>
<clipPath id="clip0_0_13406">
<rect width="20.209" height="16" fill="white" transform="translate(7.396 10.8066)"/>
</clipPath>
</defs>
</svg>
